<?xml version="1.0" standalone="no"?>
<!DOCTYPE svg PUBLIC "-//W3C//DTD SVG 20010904//EN"
 "http://www.w3.org/TR/2001/REC-SVG-20010904/DTD/svg10.dtd">
<svg version="1.0" xmlns="http://www.w3.org/2000/svg"
 width="1000.000000pt" height="1000.000000pt" viewBox="0 0 1000.000000 1000.000000"
 preserveAspectRatio="xMidYMid meet">
<metadata>
Created by potrace 1.11, written by Peter Selinger 2001-2013
</metadata>
<g transform="translate(0.000000,1000.000000) scale(0.100000,-0.100000)"
fill="#000000" stroke="none">
<path d="M4758 9455 c-2 -2 -53 -6 -114 -9 -60 -4 -121 -8 -135 -11 -22 -3
-93 -12 -174 -20 -59 -7 -281 -47 -360 -65 -45 -10 -92 -21 -105 -24 -84 -17
-415 -118 -495 -151 -16 -6 -68 -27 -115 -45 -264 -104 -593 -275 -837 -436
-106 -70 -324 -229 -383 -280 -14 -12 -61 -52 -105 -90 -103 -87 -389 -376
-481 -485 -530 -629 -910 -1435 -1030 -2184 -1 -11 -5 -29 -7 -40 -7 -32 -21
-129 -19 -136 1 -4 -3 -33 -8 -65 -5 -33 -12 -99 -15 -149 -4 -49 -8 -112 -11
-140 -5 -58 -5 -392 0 -480 5 -80 16 -214 21 -245 3 -14 6 -45 9 -70 7 -68 36
-238 51 -300 8 -30 16 -71 19 -90 9 -57 81 -305 132 -450 96 -276 279 -668
408 -870 95 -148 152 -236 157 -240 3 -3 20 -27 39 -55 67 -99 196 -265 309
-395 187 -215 344 -370 631 -624 46 -41 256 -206 300 -237 19 -13 37 -26 40
-29 55 -59 720 -470 760 -470 8 0 121 136 361 435 57 72 108 135 114 141 5 6
60 74 122 150 61 77 247 306 412 509 l299 370 -143 72 c-165 83 -355 189 -437
244 -31 22 -59 39 -62 39 -9 0 -248 172 -346 248 -461 363 -811 795 -1023
1267 -48 106 -103 252 -112 295 -2 8 -10 42 -18 75 -38 145 -50 251 -51 430
-1 165 6 292 19 370 67 389 179 679 389 1005 380 591 1029 1042 1711 1189 50
11 113 23 140 27 28 3 59 8 70 10 122 24 537 23 679 -1 11 -2 64 -11 116 -20
381 -65 787 -245 1123 -498 65 -49 128 -99 141 -110 181 -172 343 -346 393
-425 10 -15 20 -29 24 -32 4 -3 40 -57 81 -120 237 -366 376 -773 405 -1185
12 -182 5 -400 -17 -499 -4 -23 -11 -57 -14 -76 -27 -174 -141 -466 -268 -685
-70 -123 -236 -358 -300 -427 -7 -7 -33 -36 -57 -63 -364 -412 -836 -772
-1348 -1029 l-112 -56 217 -330 c119 -181 280 -425 357 -542 77 -117 227 -345
333 -506 l192 -293 123 62 c564 286 1079 664 1513 1109 160 165 163 169 269
295 28 33 55 65 61 72 32 34 222 294 292 399 193 290 403 703 502 984 64 183
81 234 109 335 29 106 84 342 95 415 18 111 38 278 44 365 13 189 6 603 -14
760 -2 22 -7 56 -9 75 -13 103 -27 196 -51 325 -78 426 -278 954 -525 1383
-79 136 -203 331 -243 383 -12 15 -30 39 -41 55 -129 180 -283 360 -465 543
-198 199 -396 370 -545 471 -27 18 -52 36 -55 40 -8 10 -286 190 -293 190 -3
0 -34 18 -69 39 -76 46 -330 174 -438 221 -123 53 -132 57 -215 88 -215 82
-554 181 -710 207 -11 2 -72 13 -135 24 -130 22 -204 32 -335 46 -33 3 -78 8
-100 11 -45 6 -632 14 -637 9z m597 -199 c22 -2 69 -7 105 -10 36 -3 76 -8 90
-10 14 -3 50 -7 80 -10 131 -15 388 -68 595 -125 351 -96 801 -299 1170 -529
168 -104 384 -264 550 -407 156 -134 435 -423 527 -545 14 -19 34 -45 44 -57
39 -45 51 -60 94 -123 25 -36 48 -67 51 -70 8 -7 128 -192 171 -265 71 -119
89 -153 177 -330 181 -364 299 -715 375 -1110 18 -93 20 -107 41 -255 34 -247
39 -716 11 -955 -3 -22 -7 -60 -10 -85 -19 -176 -66 -405 -122 -595 -83 -285
-221 -623 -345 -845 -23 -41 -55 -100 -72 -130 -65 -118 -243 -380 -349 -515
-141 -178 -232 -280 -418 -465 -283 -284 -478 -444 -805 -664 -180 -122 -494
-305 -597 -348 -13 -5 -32 17 -89 105 -40 62 -123 189 -184 282 -61 94 -136
208 -167 255 -149 230 -255 392 -299 458 -27 41 -49 78 -49 83 0 5 -4 9 -10 9
-5 0 -10 4 -10 10 0 5 -18 36 -40 67 -22 32 -40 61 -40 65 0 4 42 29 93 54
385 194 754 462 1053 766 113 116 271 300 324 378 13 19 27 37 30 40 12 11 71
101 132 200 214 348 353 727 385 1050 10 95 10 401 0 500 -60 615 -363 1235
-832 1705 -134 135 -154 153 -275 246 -342 266 -774 462 -1185 539 -27 5 -63
12 -80 15 -123 24 -281 33 -500 30 -132 -2 -258 -6 -280 -10 -22 -3 -69 -10
-105 -15 -36 -6 -76 -12 -90 -15 -14 -3 -38 -8 -55 -11 -117 -21 -347 -92
-490 -152 -228 -95 -504 -252 -665 -378 -123 -97 -226 -189 -323 -286 -99
-101 -150 -159 -290 -338 -34 -43 -121 -176 -169 -260 -129 -224 -248 -518
-294 -731 -14 -65 -35 -183 -39 -218 -3 -19 -7 -50 -10 -69 -11 -69 -16 -171
-17 -312 -1 -188 9 -297 46 -487 49 -247 192 -591 350 -836 70 -109 189 -274
233 -322 10 -12 38 -45 63 -75 298 -362 785 -738 1268 -979 93 -47 102 -54 91
-69 -7 -9 -32 -39 -55 -67 -22 -27 -74 -90 -113 -140 -89 -110 -104 -129 -228
-281 -54 -67 -159 -197 -233 -289 -74 -92 -139 -173 -145 -179 -5 -6 -46 -56
-90 -111 -44 -55 -84 -105 -90 -111 -5 -7 -27 -34 -49 -62 l-38 -49 -77 42
c-202 113 -297 171 -466 289 -493 342 -951 807 -1296 1316 -221 327 -417 723
-538 1088 -34 103 -94 314 -106 371 -2 9 -13 59 -24 111 -11 52 -22 111 -25
130 -3 19 -8 46 -10 60 -8 43 -16 99 -21 148 -3 26 -7 61 -10 77 -24 157 -24
676 0 875 3 19 7 58 11 85 3 28 8 66 10 85 16 128 67 373 113 545 133 492 397
1029 716 1455 412 550 934 983 1570 1303 127 64 329 157 341 157 3 0 22 7 42
16 62 27 74 31 177 67 91 31 254 81 301 92 10 2 69 16 129 31 61 14 119 27
130 29 11 2 49 8 85 15 93 16 176 28 245 35 33 4 67 8 75 10 8 2 67 7 130 11
63 3 116 8 118 9 5 5 531 -3 577 -9z"/>
<path d="M4828 8915 c-2 -2 -57 -6 -124 -9 -66 -4 -130 -8 -142 -11 -11 -2
-48 -6 -81 -10 -33 -3 -68 -8 -79 -10 -10 -2 -42 -6 -70 -10 -44 -5 -246 -46
-304 -61 -10 -2 -26 -6 -36 -8 -126 -28 -358 -105 -527 -173 -109 -45 -456
-214 -485 -237 -8 -6 -35 -22 -60 -36 -25 -13 -102 -61 -172 -107 -329 -215
-598 -451 -876 -766 -187 -213 -423 -573 -551 -842 -23 -49 -48 -101 -56 -115
-92 -175 -238 -637 -280 -885 -3 -16 -6 -39 -9 -50 -18 -97 -18 -101 -31 -215
-4 -36 -9 -73 -11 -82 -7 -41 -18 -284 -18 -418 0 -246 18 -477 54 -690 28
-167 27 -161 70 -330 55 -217 118 -404 200 -590 333 -758 897 -1412 1587
-1841 208 -129 254 -153 268 -137 6 7 72 87 145 178 74 91 147 181 164 201 46
54 85 102 179 219 l85 104 -146 76 c-226 118 -356 202 -541 355 -86 70 -261
240 -351 341 -41 45 -184 224 -216 270 -153 216 -243 373 -341 594 -13 30 -31
69 -38 85 -44 97 -147 449 -169 575 -3 19 -8 46 -11 60 -3 13 -7 40 -10 60 -3
20 -7 45 -9 56 -29 148 -29 619 0 804 64 414 180 746 388 1110 81 143 244 383
311 456 5 7 28 34 50 60 61 74 312 325 388 388 237 197 543 385 807 495 30 13
69 29 85 36 177 80 579 179 805 200 30 3 82 7 115 10 70 6 399 6 465 0 213
-20 340 -40 465 -72 33 -8 71 -17 85 -20 41 -7 318 -102 363 -123 22 -11 45
-20 49 -20 14 0 297 -144 382 -195 476 -282 870 -671 1158 -1140 79 -129 170
-304 218 -420 22 -55 45 -109 50 -120 55 -120 147 -484 165 -649 4 -31 9 -67
12 -79 3 -12 7 -137 9 -277 2 -206 -1 -282 -16 -397 -104 -794 -532 -1549
-1175 -2074 -77 -63 -302 -229 -310 -229 -2 0 -39 -22 -82 -48 -73 -45 -163
-96 -241 -136 l-32 -17 19 -27 c23 -33 92 -141 106 -164 6 -9 39 -62 75 -118
36 -55 72 -111 80 -125 49 -78 119 -187 147 -230 18 -27 34 -53 36 -59 6 -19
305 145 502 277 118 79 297 212 364 272 19 16 62 54 95 83 106 94 302 300 409
430 264 323 451 630 611 1006 25 59 46 111 46 117 0 5 5 17 10 27 41 70 165
537 185 692 3 19 9 67 15 105 29 202 35 291 35 580 0 239 -7 407 -19 471 -2
12 -7 45 -11 75 -4 30 -8 63 -10 74 -4 33 -15 99 -20 125 -3 14 -8 39 -11 55
-10 56 -64 270 -90 355 -154 511 -445 1040 -804 1460 -159 187 -385 406 -556
540 -11 8 -40 31 -64 51 -68 54 -282 199 -395 266 -173 103 -428 229 -615 304
-77 30 -338 118 -367 124 -14 2 -39 9 -56 14 -49 16 -283 67 -367 81 -154 24
-209 31 -380 46 -71 6 -487 13 -492 9z"/>
</g>
</svg>
